<svg xmlns="http://www.w3.org/2000/svg" width="32" height="32" id="bank">
  <path d="M15.986.002a.5.5 0 0 0-.257.076l-15.5 10A.5.5 0 0 0 .5 11h1.594a1.472 1.472 0 0 0-.094.5c0 .647.421 1.198 1 1.406v13.186c-.579.208-1 .761-1 1.408 0 .176.037.342.094.5H2c-1.1 0-2 .9-2 2s.9 2 2 2h28c1.1 0 2-.9 2-2s-.9-2-2-2h-.094c.057-.158.094-.324.094-.5 0-.647-.421-1.2-1-1.408V12.906c.579-.208 1-.76 1-1.406 0-.176-.037-.343-.094-.5H31.5a.5.5 0 0 0 .271-.92l-15.5-10a.5.5 0 0 0-.285-.078zM16 1.098 29.799 10H2.2L16 1.098zM16 4c-1.099 0-2 .901-2 2s.901 2 2 2 2-.901 2-2-.901-2-2-2zm0 1c.558 0 1 .442 1 1s-.442 1-1 1-1-.442-1-1 .442-1 1-1zM3.5 11h2c.286 0 .5.214.5.5 0 .286-.214.5-.5.5h-2a.488.488 0 0 1-.5-.5c0-.286.214-.5.5-.5zm3.406 0h1.188a1.472 1.472 0 0 0-.094.5c0 .647.421 1.198 1 1.406v13.186c-.579.208-1 .761-1 1.408 0 .176.037.342.094.5H6.906c.057-.158.094-.324.094-.5 0-.647-.421-1.2-1-1.408V12.906c.579-.208 1-.76 1-1.406 0-.176-.037-.343-.094-.5zM9.5 11h2c.286 0 .5.214.5.5 0 .286-.214.5-.5.5h-2a.488.488 0 0 1-.5-.5c0-.286.214-.5.5-.5zm3.406 0h6.188a1.472 1.472 0 0 0-.094.5c0 .647.421 1.198 1 1.406v13.186c-.579.208-1 .761-1 1.408 0 .176.037.342.094.5h-6.188c.057-.158.094-.324.094-.5 0-.647-.421-1.2-1-1.408V12.906c.579-.208 1-.76 1-1.406 0-.176-.037-.343-.094-.5zm7.594 0h2c.286 0 .5.214.5.5 0 .286-.214.5-.5.5h-2a.488.488 0 0 1-.5-.5c0-.286.214-.5.5-.5zm3.406 0h1.188a1.472 1.472 0 0 0-.094.5c0 .647.421 1.198 1 1.406v13.186c-.579.208-1 .761-1 1.408 0 .176.037.342.094.5h-1.188c.057-.158.094-.324.094-.5 0-.647-.421-1.2-1-1.408V12.906c.579-.208 1-.76 1-1.406 0-.176-.037-.343-.094-.5zm2.594 0h2c.286 0 .5.214.5.5 0 .286-.214.5-.5.5h-2a.488.488 0 0 1-.5-.5c0-.286.214-.5.5-.5zM4 13h1v13H4V13zm6 0h1v13h-1V13zm11 0h1v13h-1V13zm6 0h1v13h-1V13zm-13.473 3v.01h-.023v1h1.027c.935 0 1.405.441 1.574.99h-2.578v1h2.578c-.17.549-.64.992-1.574.992h-1.028v1h.296L16.849 24l.704-.71-2.395-2.364A2.51 2.51 0 0 0 17.131 19h1.365v-1h-1.365c-.077-.36-.244-.7-.479-1h1.844v-1h-4.969zM3.5 27h2c.286 0 .5.214.5.5 0 .286-.214.5-.5.5h-2a.488.488 0 0 1-.5-.5c0-.286.214-.5.5-.5zm6 0h2c.286 0 .5.214.5.5 0 .286-.214.5-.5.5h-2a.488.488 0 0 1-.5-.5c0-.286.214-.5.5-.5zm11 0h2c.286 0 .5.214.5.5 0 .286-.214.5-.5.5h-2a.488.488 0 0 1-.5-.5c0-.286.214-.5.5-.5zm6 0h2c.286 0 .5.214.5.5 0 .286-.214.5-.5.5h-2a.488.488 0 0 1-.5-.5c0-.286.214-.5.5-.5zM2 29h28c.563 0 1 .437 1 1s-.437 1-1 1H2c-.563 0-1-.437-1-1s.437-1 1-1z" style="color:#000;font-style:normal;font-variant:normal;font-weight:400;font-stretch:normal;font-size:medium;line-height:normal;font-family:sans-serif;text-indent:0;text-align:start;text-decoration:none;text-decoration-line:none;text-decoration-style:solid;text-decoration-color:#000;letter-spacing:normal;word-spacing:normal;text-transform:none;direction:ltr;block-progression:tb;writing-mode:lr-tb;baseline-shift:baseline;text-anchor:start;white-space:normal;clip-rule:nonzero;display:inline;overflow:visible;visibility:visible;opacity:1;isolation:auto;mix-blend-mode:normal;color-interpolation:sRGB;color-interpolation-filters:linearRGB;solid-color:#000;solid-opacity:1;fill:#000;fill-opacity:1;fill-rule:nonzero;stroke:none;stroke-width:1;stroke-linecap:round;stroke-linejoin:round;stroke-miterlimit:4;stroke-dasharray:none;stroke-dashoffset:0;stroke-opacity:1;color-rendering:auto;image-rendering:auto;shape-rendering:auto;text-rendering:auto;enable-background:accumulate"></path>
</svg>
